<svg width="188" height="53" viewBox="0 0 188 53" fill="none" xmlns="http://www.w3.org/2000/svg">
<g clip-path="url(#clip0_21_5)">
<path d="M17.4438 21.7679C17.3088 21.7488 14.115 21.322 12.2309 23.1045C10.3468 24.887 10.5962 28.0996 10.6077 28.2355C10.6274 28.4669 10.8044 28.654 11.0344 28.6865C11.1695 28.7055 14.3632 29.1323 16.2473 27.3498C18.1314 25.5673 17.8821 22.3548 17.8705 22.2189C17.8509 21.9875 17.6739 21.8004 17.4438 21.7679ZM15.5628 26.6263C14.3827 27.7428 12.4347 27.779 11.5878 27.7347C11.5891 26.8873 11.7309 24.9487 12.9154 23.8281C14.0954 22.7117 16.0432 22.6754 16.8905 22.7196C16.8891 23.5671 16.7473 25.5057 15.5628 26.6263Z" fill="black"/>
<path d="M22.3472 15.073C22.234 14.9971 19.5444 13.2225 17.0723 14.007C14.9821 14.6704 13.82 16.9178 13.4812 17.6735C12.8578 17.9026 11.8235 18.1239 11.3947 17.7119C11.0595 17.3897 10.8736 16.8214 10.6768 16.2197C10.4238 15.4459 10.1621 14.6458 9.50978 14.1843C9.28518 14.0255 8.97419 14.0788 8.81562 14.3033C8.65677 14.5278 8.71005 14.8387 8.93455 14.9974C9.31786 15.2686 9.51812 15.881 9.73016 16.5293C9.73564 16.5461 9.74118 16.5629 9.74666 16.5797C9.27415 16.3914 8.93274 15.897 8.92371 15.8837C8.77135 15.6557 8.46314 15.5937 8.23436 15.7453C8.00536 15.8975 7.94251 16.2063 8.09453 16.4356C8.1306 16.4899 8.939 17.686 10.1543 17.6471C10.2973 17.938 10.4721 18.2067 10.7046 18.43C11.5729 19.2645 13.0476 18.8867 13.7582 18.6326C14.4309 19.0362 16.7157 20.2516 18.8401 19.5774C19.5561 19.3501 20.163 18.9372 20.6655 18.4618C21.8979 17.2958 22.5004 15.7552 22.5351 15.6647C22.6181 15.4478 22.5402 15.2023 22.3472 15.073ZM18.5389 18.628C16.9904 19.1194 15.2208 18.304 14.4776 17.8956C14.8477 17.1332 15.8195 15.4495 17.3736 14.9564C18.9214 14.4652 20.6901 15.2797 21.434 15.6885C21.0619 16.4515 20.0866 18.1368 18.5389 18.628Z" fill="black"/>
<path d="M29.5135 12.275C29.3777 12.2871 26.1705 12.5946 24.7386 14.7574C23.3071 16.9203 24.2773 19.9929 24.3194 20.1227C24.3909 20.3437 24.6057 20.4858 24.8371 20.4654C24.9554 20.4549 27.4055 20.2202 28.9811 18.7295C29.2139 18.5092 29.4277 18.2615 29.612 17.9831C31.0435 15.8202 30.0733 12.7475 30.0312 12.6178C29.9597 12.3967 29.7448 12.2545 29.5135 12.275ZM28.7814 17.4332C27.8848 18.7877 25.9954 19.2643 25.1606 19.413C24.97 18.5872 24.6692 16.6669 25.5692 15.3071C26.4655 13.9529 28.3546 13.4762 29.19 13.3274C29.3806 14.1532 29.6814 16.0735 28.7814 17.4332Z" fill="black"/>
<path d="M27.848 14.3532C27.5847 14.4386 27.3406 14.5443 27.1225 14.6671C26.8828 14.8017 26.7979 15.1057 26.9327 15.3453C27.0676 15.5851 27.3713 15.67 27.611 15.5351C27.7718 15.4445 27.955 15.3656 28.1556 15.3005C28.2283 15.2769 28.2919 15.2382 28.3439 15.1889C28.4792 15.061 28.5368 14.862 28.4754 14.6731C28.3905 14.4115 28.1096 14.2682 27.848 14.3532Z" fill="black"/>
<path d="M26.4131 15.8868C26.1522 15.7998 25.8702 15.9407 25.783 16.2015C25.6709 16.5375 25.619 16.9169 25.6287 17.3293C25.6352 17.6042 25.8634 17.8219 26.1383 17.8154C26.2666 17.8123 26.3823 17.761 26.4687 17.6793C26.5674 17.5859 26.6279 17.4524 26.6244 17.3057C26.6174 17.0087 26.6521 16.7433 26.7277 16.5169C26.8149 16.256 26.674 15.9739 26.4131 15.8868Z" fill="black"/>
</g>
<path d="M48.632 31.632C49 31.632 49.264 31.712 49.424 31.872C49.6 32.032 49.688 32.24 49.688 32.496C49.688 32.912 49.56 33.28 49.304 33.6C49.064 33.92 48.68 34.088 48.152 34.104C46.888 34.12 45.752 34.024 44.744 33.816C43.624 36.2 42.272 38.184 40.688 39.768C39.12 41.336 37.568 42.12 36.032 42.12C34.624 42.12 33.568 41.376 32.864 39.888C32.16 38.384 31.76 36.376 31.664 33.864C30.704 36.648 29.616 38.72 28.4 40.08C27.2 41.44 25.92 42.12 24.56 42.12C23.024 42.12 21.864 41.168 21.08 39.264C20.296 37.344 19.904 34.768 19.904 31.536C19.904 29.184 20.112 26.6 20.528 23.784C20.64 22.984 20.84 22.432 21.128 22.128C21.432 21.808 21.904 21.648 22.544 21.648C23.024 21.648 23.392 21.752 23.648 21.96C23.92 22.168 24.056 22.552 24.056 23.112C24.056 23.224 24.04 23.44 24.008 23.76C23.528 27.04 23.288 29.832 23.288 32.136C23.288 34.28 23.472 35.936 23.84 37.104C24.208 38.272 24.704 38.856 25.328 38.856C25.888 38.856 26.56 38.272 27.344 37.104C28.144 35.92 28.936 34.176 29.72 31.872C30.504 29.552 31.168 26.792 31.712 23.592C31.84 22.856 32.072 22.352 32.408 22.08C32.76 21.792 33.232 21.648 33.824 21.648C34.32 21.648 34.68 21.76 34.904 21.984C35.144 22.192 35.264 22.512 35.264 22.944C35.264 23.2 35.248 23.4 35.216 23.544C34.768 26.152 34.544 28.76 34.544 31.368C34.544 33.144 34.6 34.56 34.712 35.616C34.84 36.672 35.072 37.48 35.408 38.04C35.76 38.584 36.264 38.856 36.92 38.856C37.688 38.856 38.544 38.28 39.488 37.128C40.432 35.96 41.296 34.512 42.08 32.784C41.104 32.176 40.368 31.392 39.872 30.432C39.376 29.456 39.128 28.336 39.128 27.072C39.128 25.808 39.32 24.744 39.704 23.88C40.104 23 40.64 22.344 41.312 21.912C42 21.48 42.76 21.264 43.592 21.264C44.616 21.264 45.424 21.632 46.016 22.368C46.624 23.104 46.928 24.112 46.928 25.392C46.928 27.2 46.536 29.208 45.752 31.416C46.568 31.56 47.528 31.632 48.632 31.632ZM41.552 26.904C41.552 28.472 42.056 29.632 43.064 30.384C43.688 28.592 44 27.112 44 25.944C44 25.272 43.912 24.784 43.736 24.48C43.56 24.16 43.32 24 43.016 24C42.584 24 42.232 24.256 41.96 24.768C41.688 25.264 41.552 25.976 41.552 26.904ZM49.3462 42.12C48.3542 42.12 47.5622 41.76 46.9702 41.04C46.3782 40.32 46.0822 39.376 46.0822 38.208C46.0822 36.928 46.3782 35.72 46.9702 34.584C47.5622 33.432 48.3462 32.512 49.3222 31.824C50.3142 31.12 51.3622 30.768 52.4662 30.768C52.8182 30.768 53.0502 30.84 53.1622 30.984C53.2902 31.112 53.3942 31.352 53.4742 31.704C53.8102 31.64 54.1622 31.608 54.5302 31.608C55.3142 31.608 55.7062 31.888 55.7062 32.448C55.7062 32.784 55.5862 33.584 55.3462 34.848C54.9782 36.688 54.7942 37.968 54.7942 38.688C54.7942 38.928 54.8502 39.12 54.9622 39.264C55.0902 39.408 55.2502 39.48 55.4422 39.48C55.7462 39.48 56.1142 39.288 56.5462 38.904C56.9782 38.504 57.5622 37.864 58.2982 36.984C58.4902 36.76 58.7062 36.648 58.9462 36.648C59.1542 36.648 59.3142 36.744 59.4262 36.936C59.5542 37.128 59.6182 37.392 59.6182 37.728C59.6182 38.368 59.4662 38.864 59.1622 39.216C58.5062 40.032 57.8102 40.72 57.0742 41.28C56.3382 41.84 55.6262 42.12 54.9382 42.12C54.4102 42.12 53.9222 41.944 53.4742 41.592C53.0422 41.224 52.7142 40.728 52.4902 40.104C51.6582 41.448 50.6102 42.12 49.3462 42.12ZM50.2102 39.696C50.5622 39.696 50.8982 39.488 51.2182 39.072C51.5382 38.656 51.7702 38.104 51.9142 37.416L52.8022 33C52.1302 33.016 51.5062 33.272 50.9302 33.768C50.3702 34.248 49.9222 34.888 49.5862 35.688C49.2502 36.488 49.0822 37.336 49.0822 38.232C49.0822 38.728 49.1782 39.096 49.3702 39.336C49.5782 39.576 49.8582 39.696 50.2102 39.696ZM59.3716 42.12C58.7636 42.12 58.3316 41.8 58.0756 41.16C57.8356 40.52 57.7156 39.496 57.7156 38.088C57.7156 36.008 58.0116 34.032 58.6036 32.16C58.7476 31.696 58.9796 31.36 59.2996 31.152C59.6356 30.928 60.0996 30.816 60.6916 30.816C61.0116 30.816 61.2356 30.856 61.3636 30.936C61.4916 31.016 61.5556 31.168 61.5556 31.392C61.5556 31.648 61.4356 32.224 61.1956 33.12C61.0356 33.76 60.9076 34.32 60.8116 34.8C60.7156 35.28 60.6356 35.872 60.5716 36.576C61.0996 35.2 61.6916 34.08 62.3476 33.216C63.0036 32.352 63.6436 31.736 64.2676 31.368C64.9076 31 65.4916 30.816 66.0196 30.816C67.0596 30.816 67.5796 31.336 67.5796 32.376C67.5796 32.584 67.5076 33.088 67.3636 33.888C67.2356 34.528 67.1716 34.928 67.1716 35.088C67.1716 35.648 67.3716 35.928 67.7716 35.928C68.2196 35.928 68.7956 35.576 69.4996 34.872C69.7076 34.664 69.9236 34.56 70.1476 34.56C70.3556 34.56 70.5156 34.656 70.6276 34.848C70.7556 35.024 70.8196 35.264 70.8196 35.568C70.8196 36.16 70.6596 36.624 70.3396 36.96C69.8916 37.424 69.3636 37.824 68.7556 38.16C68.1636 38.48 67.5316 38.64 66.8596 38.64C66.0116 38.64 65.3636 38.424 64.9156 37.992C64.4836 37.56 64.2676 36.976 64.2676 36.24C64.2676 36 64.2916 35.76 64.3396 35.52C64.3716 35.2 64.3876 34.984 64.3876 34.872C64.3876 34.616 64.2996 34.488 64.1236 34.488C63.8836 34.488 63.5636 34.76 63.1636 35.304C62.7796 35.832 62.3956 36.536 62.0116 37.416C61.6276 38.296 61.3156 39.224 61.0756 40.2C60.8996 40.952 60.6916 41.464 60.4516 41.736C60.2276 41.992 59.8676 42.12 59.3716 42.12ZM80.8295 34.632C81.0375 34.632 81.1975 34.736 81.3095 34.944C81.4215 35.152 81.4775 35.416 81.4775 35.736C81.4775 36.504 81.2455 36.96 80.7815 37.104C79.8215 37.44 78.7655 37.632 77.6135 37.68C77.3095 39.024 76.7095 40.104 75.8135 40.92C74.9175 41.72 73.9015 42.12 72.7655 42.12C71.8055 42.12 70.9815 41.888 70.2935 41.424C69.6215 40.96 69.1095 40.344 68.7575 39.576C68.4055 38.808 68.2295 37.976 68.2295 37.08C68.2295 35.864 68.4615 34.784 68.9255 33.84C69.3895 32.88 70.0295 32.136 70.8455 31.608C71.6615 31.064 72.5655 30.792 73.5575 30.792C74.7735 30.792 75.7495 31.216 76.4855 32.064C77.2375 32.896 77.6775 33.928 77.8055 35.16C78.5575 35.112 79.4535 34.952 80.4935 34.68C80.6215 34.648 80.7335 34.632 80.8295 34.632ZM72.9575 39.576C73.4695 39.576 73.9095 39.368 74.2775 38.952C74.6615 38.536 74.9175 37.936 75.0455 37.152C74.5495 36.816 74.1655 36.376 73.8935 35.832C73.6375 35.288 73.5095 34.712 73.5095 34.104C73.5095 33.848 73.5335 33.592 73.5815 33.336H73.4615C72.8215 33.336 72.2855 33.648 71.8535 34.272C71.4375 34.88 71.2295 35.744 71.2295 36.864C71.2295 37.744 71.3975 38.416 71.7335 38.88C72.0855 39.344 72.4935 39.576 72.9575 39.576ZM90.1216 36.648C90.3296 36.648 90.4896 36.744 90.6016 36.936C90.7296 37.128 90.7936 37.392 90.7936 37.728C90.7936 38.368 90.6416 38.864 90.3376 39.216C89.7456 39.936 88.9056 40.6 87.8176 41.208C86.7456 41.816 85.5936 42.12 84.3616 42.12C82.6816 42.12 81.3776 41.664 80.4496 40.752C79.5216 39.84 79.0576 38.592 79.0576 37.008C79.0576 35.904 79.2896 34.88 79.7536 33.936C80.2176 32.976 80.8576 32.216 81.6736 31.656C82.5056 31.096 83.4416 30.816 84.4816 30.816C85.4096 30.816 86.1536 31.096 86.7136 31.656C87.2736 32.2 87.5536 32.944 87.5536 33.888C87.5536 34.992 87.1536 35.944 86.3536 36.744C85.5696 37.528 84.2336 38.152 82.3456 38.616C82.7456 39.352 83.5056 39.72 84.6256 39.72C85.3456 39.72 86.1616 39.472 87.0736 38.976C88.0016 38.464 88.8016 37.8 89.4736 36.984C89.6656 36.76 89.8816 36.648 90.1216 36.648ZM84.0736 33.168C83.4816 33.168 82.9776 33.512 82.5616 34.2C82.1616 34.888 81.9616 35.72 81.9616 36.696V36.744C82.9056 36.52 83.6496 36.184 84.1936 35.736C84.7376 35.288 85.0096 34.768 85.0096 34.176C85.0096 33.872 84.9216 33.632 84.7456 33.456C84.5856 33.264 84.3616 33.168 84.0736 33.168ZM90.5435 42.12C89.9355 42.12 89.5035 41.8 89.2475 41.16C89.0075 40.52 88.8875 39.496 88.8875 38.088C88.8875 36.008 89.1835 34.032 89.7755 32.16C89.9195 31.696 90.1515 31.36 90.4715 31.152C90.8075 30.928 91.2715 30.816 91.8635 30.816C92.1835 30.816 92.4075 30.856 92.5355 30.936C92.6635 31.016 92.7275 31.168 92.7275 31.392C92.7275 31.648 92.6075 32.224 92.3675 33.12C92.2075 33.76 92.0795 34.32 91.9835 34.8C91.8875 35.28 91.8075 35.872 91.7435 36.576C92.2715 35.2 92.8635 34.08 93.5195 33.216C94.1755 32.352 94.8155 31.736 95.4395 31.368C96.0795 31 96.6635 30.816 97.1915 30.816C98.2315 30.816 98.7515 31.336 98.7515 32.376C98.7515 33 98.5755 34.128 98.2235 35.76C97.9195 37.152 97.7675 38.072 97.7675 38.52C97.7675 39.16 97.9995 39.48 98.4635 39.48C98.7835 39.48 99.1595 39.288 99.5915 38.904C100.04 38.504 100.632 37.864 101.368 36.984C101.56 36.76 101.776 36.648 102.016 36.648C102.224 36.648 102.384 36.744 102.496 36.936C102.624 37.128 102.688 37.392 102.688 37.728C102.688 38.368 102.536 38.864 102.232 39.216C101.544 40.064 100.8 40.76 99.9995 41.304C99.2155 41.848 98.3195 42.12 97.3115 42.12C96.4955 42.12 95.8795 41.888 95.4635 41.424C95.0475 40.944 94.8395 40.256 94.8395 39.36C94.8395 38.912 94.9515 38.112 95.1755 36.96C95.3835 35.952 95.4875 35.256 95.4875 34.872C95.4875 34.616 95.3995 34.488 95.2235 34.488C95.0155 34.488 94.7195 34.76 94.3355 35.304C93.9675 35.832 93.5835 36.536 93.1835 37.416C92.7995 38.296 92.4875 39.224 92.2475 40.2C92.0715 40.952 91.8635 41.464 91.6235 41.736C91.3995 41.992 91.0395 42.12 90.5435 42.12ZM113.034 36.696C113.242 36.696 113.402 36.8 113.514 37.008C113.642 37.2 113.706 37.448 113.706 37.752C113.706 38.12 113.65 38.408 113.538 38.616C113.426 38.824 113.25 39.008 113.01 39.168C111.634 40.096 110.626 40.784 109.986 41.232L108.45 42.264C107.842 45.576 107.042 48.176 106.05 50.064C105.074 51.968 103.826 52.92 102.306 52.92C101.49 52.92 100.826 52.664 100.314 52.152C99.8018 51.656 99.5457 51 99.5457 50.184C99.5457 49.048 99.9938 47.824 100.89 46.512C101.786 45.216 103.466 43.616 105.93 41.712L106.074 40.776C105.802 41.208 105.442 41.544 104.994 41.784C104.562 42.008 104.13 42.12 103.698 42.12C102.706 42.12 101.914 41.76 101.322 41.04C100.73 40.32 100.434 39.376 100.434 38.208C100.434 36.928 100.73 35.72 101.322 34.584C101.914 33.432 102.698 32.512 103.674 31.824C104.666 31.12 105.714 30.768 106.818 30.768C107.17 30.768 107.402 30.84 107.514 30.984C107.642 31.112 107.746 31.352 107.826 31.704C108.13 31.64 108.482 31.608 108.882 31.608C109.282 31.608 109.562 31.672 109.722 31.8C109.898 31.912 109.986 32.144 109.986 32.496C109.986 32.688 109.978 32.84 109.962 32.952C109.898 33.448 109.698 34.704 109.362 36.72C109.298 37.104 109.226 37.528 109.146 37.992C109.082 38.44 109.01 38.92 108.93 39.432C110.162 38.472 111.346 37.624 112.482 36.888C112.69 36.76 112.874 36.696 113.034 36.696ZM104.562 39.696C104.93 39.696 105.282 39.472 105.618 39.024C105.954 38.576 106.194 37.936 106.338 37.104L107.106 33C106.45 33.016 105.842 33.272 105.282 33.768C104.722 34.248 104.274 34.888 103.938 35.688C103.602 36.488 103.434 37.336 103.434 38.232C103.434 38.728 103.53 39.096 103.722 39.336C103.93 39.576 104.21 39.696 104.562 39.696ZM102.57 50.592C102.97 50.592 103.418 50.112 103.914 49.152C104.426 48.192 104.914 46.664 105.378 44.568C104.146 45.624 103.258 46.576 102.714 47.424C102.17 48.272 101.898 49.016 101.898 49.656C101.898 49.928 101.946 50.152 102.042 50.328C102.154 50.504 102.33 50.592 102.57 50.592ZM129.783 34.704C129.831 34.688 129.911 34.68 130.023 34.68C130.263 34.68 130.447 34.76 130.575 34.92C130.703 35.08 130.767 35.296 130.767 35.568C130.767 36.064 130.671 36.456 130.479 36.744C130.287 37.016 129.999 37.216 129.615 37.344C128.879 37.584 128.095 37.704 127.263 37.704C126.559 37.704 125.895 37.608 125.271 37.416C124.807 38.168 124.295 38.944 123.735 39.744C123.095 40.656 122.543 41.28 122.079 41.616C121.631 41.952 121.119 42.12 120.543 42.12C119.903 42.12 119.415 41.872 119.079 41.376C118.759 40.88 118.559 40.064 118.479 38.928L118.359 37.176C117.863 38.52 117.415 39.544 117.015 40.248C116.631 40.952 116.239 41.44 115.839 41.712C115.455 41.984 114.999 42.12 114.471 42.12C113.815 42.12 113.295 41.864 112.911 41.352C112.543 40.84 112.311 40.032 112.215 38.928C112.023 36.688 111.927 34.728 111.927 33.048V32.208C111.943 31.68 112.087 31.312 112.359 31.104C112.631 30.896 113.039 30.792 113.583 30.792C113.999 30.792 114.303 30.888 114.495 31.08C114.703 31.256 114.807 31.56 114.807 31.992C114.807 33.832 114.919 36.224 115.143 39.168C116.231 36.88 117.231 34.496 118.143 32.016C118.319 31.536 118.527 31.216 118.767 31.056C119.023 30.88 119.327 30.792 119.679 30.792C120.111 30.792 120.407 30.88 120.567 31.056C120.743 31.232 120.831 31.544 120.831 31.992C120.831 33.832 120.943 36.224 121.167 39.168C122.127 37.744 122.847 36.608 123.327 35.76C123.087 35.296 122.967 34.744 122.967 34.104C122.967 33.56 123.087 33.032 123.327 32.52C123.567 32.008 123.895 31.592 124.311 31.272C124.727 30.952 125.199 30.792 125.727 30.792C126.191 30.792 126.567 30.96 126.855 31.296C127.143 31.616 127.287 32.088 127.287 32.712C127.287 33.432 127.095 34.256 126.711 35.184C127.319 35.152 128.127 35.032 129.135 34.824L129.783 34.704ZM131.827 29.232C131.155 29.232 130.651 29.08 130.315 28.776C129.979 28.456 129.811 28.016 129.811 27.456C129.811 26.896 130.027 26.432 130.459 26.064C130.907 25.68 131.459 25.488 132.115 25.488C132.707 25.488 133.187 25.632 133.555 25.92C133.923 26.208 134.107 26.616 134.107 27.144C134.107 27.784 133.899 28.296 133.483 28.68C133.067 29.048 132.515 29.232 131.827 29.232ZM131.635 42.12C130.595 42.12 129.835 41.752 129.355 41.016C128.891 40.28 128.659 39.304 128.659 38.088C128.659 37.368 128.747 36.448 128.923 35.328C129.115 34.192 129.355 33.136 129.643 32.16C129.787 31.648 129.979 31.296 130.219 31.104C130.459 30.912 130.843 30.816 131.371 30.816C132.187 30.816 132.595 31.088 132.595 31.632C132.595 32.032 132.443 32.96 132.139 34.416C131.755 36.176 131.563 37.368 131.563 37.992C131.563 38.472 131.627 38.84 131.755 39.096C131.883 39.352 132.099 39.48 132.403 39.48C132.691 39.48 133.051 39.28 133.483 38.88C133.915 38.48 134.491 37.848 135.211 36.984C135.403 36.76 135.619 36.648 135.859 36.648C136.067 36.648 136.227 36.744 136.339 36.936C136.467 37.128 136.531 37.392 136.531 37.728C136.531 38.368 136.379 38.864 136.075 39.216C134.491 41.152 133.011 42.12 131.635 42.12ZM148.222 36.648C148.43 36.648 148.59 36.744 148.702 36.936C148.83 37.128 148.894 37.392 148.894 37.728C148.894 38.368 148.742 38.864 148.438 39.216C147.782 40.016 147.062 40.704 146.278 41.28C145.494 41.84 144.718 42.12 143.95 42.12C142.734 42.12 141.806 41.408 141.166 39.984C140.494 40.832 139.902 41.4 139.39 41.688C138.894 41.976 138.31 42.12 137.638 42.12C136.662 42.12 135.854 41.76 135.214 41.04C134.59 40.304 134.278 39.352 134.278 38.184C134.278 36.904 134.55 35.72 135.094 34.632C135.638 33.528 136.382 32.632 137.326 31.944C138.286 31.24 139.358 30.824 140.542 30.696C140.846 27.592 141.422 24.944 142.27 22.752C143.134 20.544 144.262 19.44 145.654 19.44C146.342 19.44 146.91 19.752 147.358 20.376C147.822 21 148.054 21.944 148.054 23.208C148.054 25 147.614 27.096 146.734 29.496C145.854 31.896 144.678 34.36 143.206 36.888C143.27 37.816 143.406 38.48 143.614 38.88C143.838 39.28 144.118 39.48 144.454 39.48C144.886 39.48 145.326 39.288 145.773 38.904C146.222 38.52 146.822 37.88 147.574 36.984C147.766 36.76 147.982 36.648 148.222 36.648ZM145.39 21.792C145.086 21.792 144.782 22.336 144.478 23.424C144.174 24.496 143.91 25.904 143.686 27.648C143.478 29.392 143.326 31.216 143.23 33.12C145.022 29.216 145.918 26.08 145.918 23.712C145.918 23.104 145.862 22.632 145.75 22.296C145.654 21.96 145.534 21.792 145.39 21.792ZM138.478 39.696C138.782 39.696 139.086 39.576 139.39 39.336C139.694 39.08 140.078 38.616 140.542 37.944C140.382 37.08 140.302 36.112 140.302 35.04C140.302 34.656 140.318 34.032 140.35 33.168C139.47 33.44 138.734 34.032 138.142 34.944C137.566 35.84 137.278 36.84 137.278 37.944C137.278 39.112 137.678 39.696 138.478 39.696ZM150.236 29.232C149.564 29.232 149.06 29.08 148.724 28.776C148.388 28.456 148.22 28.016 148.22 27.456C148.22 26.896 148.436 26.432 148.868 26.064C149.316 25.68 149.868 25.488 150.524 25.488C151.116 25.488 151.596 25.632 151.964 25.92C152.332 26.208 152.516 26.616 152.516 27.144C152.516 27.784 152.308 28.296 151.892 28.68C151.476 29.048 150.924 29.232 150.236 29.232ZM154.556 36.696C154.764 36.696 154.924 36.8 155.036 37.008C155.164 37.2 155.228 37.448 155.228 37.752C155.228 38.12 155.172 38.408 155.06 38.616C154.948 38.824 154.772 39.008 154.532 39.168C153.412 39.904 151.916 40.92 150.044 42.216C149.42 45.544 148.612 48.16 147.62 50.064C146.628 51.968 145.364 52.92 143.828 52.92C142.996 52.92 142.332 52.664 141.836 52.152C141.324 51.656 141.068 51 141.068 50.184C141.068 49.048 141.508 47.832 142.388 46.536C143.268 45.256 144.924 43.672 147.356 41.784L147.524 40.56C147.748 39.024 147.924 37.512 148.052 36.024C148.148 35.16 148.3 33.872 148.508 32.16C148.572 31.696 148.748 31.36 149.036 31.152C149.324 30.928 149.764 30.816 150.356 30.816C150.836 30.816 151.148 30.888 151.292 31.032C151.452 31.176 151.532 31.376 151.532 31.632C151.532 32.368 151.268 34.4 150.74 37.728L150.5 39.384C151.78 38.424 152.948 37.592 154.004 36.888C154.212 36.76 154.396 36.696 154.556 36.696ZM144.092 50.592C144.508 50.592 144.964 50.12 145.46 49.176C145.956 48.232 146.42 46.712 146.852 44.616C145.636 45.656 144.764 46.592 144.236 47.424C143.692 48.272 143.42 49.016 143.42 49.656C143.42 50.28 143.644 50.592 144.092 50.592ZM156.816 29.232C156.144 29.232 155.64 29.08 155.304 28.776C154.968 28.456 154.8 28.016 154.8 27.456C154.8 26.896 155.016 26.432 155.448 26.064C155.896 25.68 156.448 25.488 157.104 25.488C157.696 25.488 158.176 25.632 158.544 25.92C158.912 26.208 159.096 26.616 159.096 27.144C159.096 27.784 158.888 28.296 158.472 28.68C158.056 29.048 157.504 29.232 156.816 29.232ZM154.512 42.12C154 42.12 153.648 42.016 153.456 41.808C153.264 41.6 153.168 41.272 153.168 40.824C153.168 40.696 153.184 40.472 153.216 40.152C153.472 37.224 153.896 34.56 154.488 32.16C154.616 31.664 154.824 31.32 155.112 31.128C155.416 30.92 155.896 30.816 156.552 30.816C157.24 30.816 157.584 31.096 157.584 31.656C157.584 31.736 157.568 31.888 157.536 32.112C156.816 35.536 156.384 38.408 156.24 40.728C156.208 41.24 156.056 41.6 155.784 41.808C155.512 42.016 155.088 42.12 154.512 42.12Z" fill="black"/>
<g clip-path="url(#clip1_21_5)">
<path d="M171.461 43.9888C170.843 43.9733 170.227 43.8882 169.609 43.8421C169.404 43.8219 169.197 43.8214 168.992 43.8405C168.799 43.8639 168.595 44.0491 168.42 43.8535C168.285 43.701 168.184 43.5224 168.122 43.3288C167.699 41.9829 167.28 40.637 166.881 39.2846C166.56 38.1958 166.277 37.0964 165.959 36.0069C165.815 35.5124 165.602 35.0363 165.468 34.5388C165.451 34.4043 165.384 34.2811 165.28 34.1939C165.176 34.1067 165.044 34.0619 164.908 34.0683C164.611 34.0701 164.324 33.9577 164.107 33.7544C163.89 33.5511 163.759 33.2724 163.742 32.9755C163.61 32.0232 163.354 31.0872 163.412 30.1119C163.41 29.9745 163.418 29.8371 163.434 29.7006C163.448 29.5443 163.509 29.3958 163.608 29.2743C163.707 29.1528 163.841 29.0638 163.991 29.0188C164.384 28.8944 164.787 28.8096 165.197 28.7657C165.681 28.7341 166.167 28.7371 166.654 28.7401C166.857 28.7401 167.061 28.7425 167.264 28.7401C167.333 28.731 167.402 28.7337 167.47 28.748C168.577 29.144 169.644 28.7341 170.723 28.5874C170.893 28.5653 171.065 28.5462 171.235 28.5192C171.609 28.4586 171.709 28.3858 171.76 28.001C171.84 27.3521 171.988 26.7134 172.202 26.0957C172.211 26.0629 172.211 26.0283 172.203 25.9953C172.195 25.9623 172.178 25.932 172.154 25.9074C172.131 25.8827 172.102 25.8645 172.069 25.8545C172.037 25.8445 172.002 25.843 171.969 25.8503C171.428 25.9505 170.873 25.949 170.332 25.8456C170.195 25.8375 170.059 25.8112 169.929 25.7674C168.875 25.2451 167.842 24.6985 167.217 23.6256C166.956 23.2176 166.831 22.738 166.858 22.2546C166.903 21.6274 167.068 21.4092 167.696 21.2766C168.642 21.0657 169.629 21.1427 170.531 21.4975C171.433 21.8523 172.208 22.4687 172.756 23.2676C172.854 23.4083 172.961 23.5423 173.076 23.669C173.101 23.6842 173.13 23.6928 173.159 23.6938C173.189 23.6948 173.218 23.6882 173.244 23.6747C173.317 23.6028 173.381 23.5226 173.435 23.4358C173.942 22.7401 174.444 22.0427 174.955 21.3505C175.107 21.1433 175.091 21.0934 174.814 21.0391C174.186 20.9271 173.594 20.6693 173.084 20.2866C172.574 19.9039 172.161 19.4069 171.878 18.8355C171.38 17.7718 170.948 16.6768 171.045 15.4662C171.081 15.0908 171.152 14.7194 171.255 14.3564C171.271 14.2885 171.301 14.2248 171.345 14.1699C171.388 14.1151 171.443 14.0704 171.505 14.0389C171.567 14.0075 171.636 13.9901 171.706 13.9879C171.775 13.9857 171.845 13.9989 171.909 14.0265C172.174 14.0994 172.43 14.201 172.673 14.3294C173.727 14.9208 174.684 15.6713 175.509 16.5544C175.84 16.8851 176.073 17.3011 176.182 17.7562C176.291 18.2113 176.271 18.6877 176.126 19.1325C176.002 19.414 175.955 19.7233 175.989 20.0289C176.291 20.0706 176.498 19.8555 176.732 19.7333C177.899 19.1184 179.245 18.9298 180.537 19.2001C180.929 19.2641 181.303 19.4145 181.631 19.6403C181.959 19.8661 182.233 20.1619 182.433 20.5062C182.687 20.9352 182.641 21.1667 182.292 21.5054C181.751 22.0296 181.052 22.2448 180.372 22.475C179.443 22.7645 178.448 22.7607 177.522 22.4644C177.024 22.3168 176.571 22.0457 176.206 21.6762C176.062 21.5376 175.892 21.5723 175.786 21.7626C175.517 22.2434 175.245 22.7237 175.013 23.2217C174.922 23.4153 174.645 23.6253 174.87 23.8593C175.028 24.023 175.258 23.8397 175.456 23.8364C175.659 23.8241 175.863 23.8469 176.059 23.9038C176.175 23.9378 176.281 24.0019 176.365 24.0899C176.449 24.1778 176.508 24.2863 176.536 24.4045C176.565 24.5226 176.561 24.6462 176.527 24.7626C176.492 24.8791 176.427 24.9843 176.338 25.0675C175.99 25.4046 175.567 25.6545 175.103 25.7968C174.808 25.8879 174.508 25.9697 174.207 26.0376C174.069 26.0564 173.94 26.1168 173.838 26.2107C173.736 26.3046 173.664 26.4275 173.634 26.5629C173.528 26.9957 173.419 27.428 173.321 27.8627C173.315 27.9307 173.336 27.9981 173.38 28.0503C173.424 28.1025 173.487 28.1352 173.555 28.1412C174.623 28.1104 175.69 28.0809 176.757 28.0416C177.273 28.022 177.787 27.9784 178.302 27.947C178.853 27.9137 179.404 27.8974 179.953 27.8447C180.823 27.7629 181.308 28.2836 181.556 29.0147C181.708 29.4751 181.76 29.9629 181.706 30.4449C181.656 30.9233 181.648 31.4052 181.604 31.8852C181.585 32.1236 181.542 32.3595 181.476 32.5896C181.335 33.062 181.067 33.3598 180.508 33.3208C180.227 33.3017 180.131 33.4373 180.121 33.6852C180.113 33.8231 180.113 33.9615 180.121 34.0994C180.228 35.3832 179.997 36.6383 179.804 37.8969C179.596 39.2559 179.395 40.6163 179.191 41.9755C179.375 42.8068 178.737 43.1166 178.207 43.4559C177.786 43.6978 177.308 43.8229 176.823 43.8181C176.24 43.8424 175.658 43.9086 175.075 43.9544C174.869 43.9697 174.662 43.9847 174.456 43.985C173.818 43.9877 173.179 43.9965 172.541 43.9965C172.182 43.9997 171.822 43.997 171.461 43.9888ZM170.988 41.6832C170.983 41.7522 170.964 41.8196 170.933 41.8815C170.862 42.0347 170.879 42.1588 171.064 42.1722C171.372 42.2055 171.682 42.212 171.991 42.1915C173.051 42.0811 174.109 41.9532 175.167 41.8179C175.815 41.7361 176.459 41.6254 177.106 41.5324C177.191 41.5251 177.272 41.489 177.334 41.4299C177.397 41.3707 177.438 41.2922 177.45 41.207C177.489 41.0404 177.563 40.8797 177.592 40.7112C177.874 39.0497 178.179 37.3904 178.415 35.7203C178.471 35.0678 178.48 34.4123 178.443 33.7585C178.444 33.7237 178.437 33.689 178.424 33.6567C178.411 33.6244 178.392 33.5951 178.367 33.5707C178.342 33.5463 178.312 33.5274 178.28 33.515C178.247 33.5026 178.212 33.4972 178.177 33.4989C177.966 33.5006 177.754 33.4989 177.541 33.4989C176.926 33.4851 176.311 33.5047 175.698 33.5575C175.01 33.6306 174.325 33.6582 173.637 33.6644C173.118 33.6699 172.602 33.6661 172.084 33.6661C172.084 33.6484 172.083 33.6306 172.081 33.6115C170.672 33.6964 169.264 33.7869 167.854 33.8657C166.572 33.938 166.584 33.7986 167.134 35.0267C167.28 35.354 167.32 35.7675 167.7 35.9608C167.961 35.8015 168.222 35.6412 168.486 35.486C168.626 35.3861 168.778 35.3038 168.939 35.2406C169.168 35.1726 169.404 35.1314 169.642 35.1178C169.729 35.1113 169.816 35.132 169.891 35.177C169.965 35.222 170.024 35.2891 170.059 35.369C170.081 35.4513 170.076 35.5389 170.044 35.618C170.011 35.697 169.953 35.7629 169.879 35.8053C169.703 35.9123 169.507 35.9875 169.338 36.1032C168.941 36.3759 168.543 36.6486 168.171 36.9516C168.087 37.0159 168.03 37.1088 168.011 37.2125C167.993 37.3161 168.013 37.423 168.068 37.5126C168.157 37.6847 168.229 37.7439 168.359 37.6749C168.693 37.4963 169.023 37.3106 169.362 37.1426C169.483 37.076 169.618 37.0355 169.756 37.0234C169.894 37.0114 170.033 37.0282 170.165 37.0727C170.281 37.1336 170.37 37.2366 170.412 37.3607C170.419 37.4104 170.414 37.4611 170.397 37.5082C170.379 37.5553 170.35 37.5974 170.313 37.6307C170.113 37.7605 169.886 37.847 169.678 37.9648C169.319 38.1664 168.96 38.3682 168.614 38.5907C168.472 38.6826 168.489 38.9998 168.62 39.1572C168.74 39.2998 168.866 39.2117 168.985 39.1534C169.264 39.017 169.537 38.8694 169.821 38.7443C170.073 38.6214 170.362 38.6029 170.628 38.6927C170.672 38.7154 170.711 38.7474 170.741 38.7865C170.772 38.8255 170.794 38.8708 170.805 38.9191C170.813 38.9676 170.81 39.0173 170.797 39.0646C170.783 39.1118 170.759 39.1553 170.726 39.1918C170.59 39.2954 170.443 39.3827 170.287 39.4517C169.917 39.6342 169.537 39.7989 169.173 39.9931C169.141 40.0069 169.113 40.0275 169.09 40.0534C169.067 40.0793 169.051 40.11 169.041 40.1432C169.031 40.1763 169.029 40.2112 169.034 40.2454C169.039 40.2795 169.052 40.3121 169.071 40.3408C169.147 40.46 169.247 40.568 169.405 40.4968C169.623 40.3986 169.828 40.2598 170.053 40.1813C170.215 40.1299 170.386 40.1148 170.555 40.1371C170.602 40.1491 170.646 40.1718 170.684 40.2035C170.721 40.2352 170.751 40.275 170.77 40.3198C170.786 40.3668 170.793 40.4165 170.788 40.4659C170.784 40.5153 170.77 40.5634 170.746 40.607C170.67 40.7206 170.571 40.8171 170.456 40.8904C170.255 41.0224 170.035 41.1254 169.832 41.2572C169.752 41.3198 169.682 41.3956 169.627 41.4814C169.62 41.4971 169.618 41.5142 169.62 41.531C169.622 41.5479 169.629 41.5639 169.639 41.5776C169.684 41.6224 169.755 41.6971 169.792 41.6848C170.08 41.5915 170.358 41.4636 170.65 41.3802C170.669 41.3745 170.69 41.3717 170.71 41.3717C170.788 41.3775 170.86 41.4132 170.912 41.4713C170.964 41.5294 170.991 41.6054 170.988 41.6832ZM165.823 32.6573C165.734 32.6658 165.647 32.6889 165.565 32.7257C165.565 32.7545 165.573 32.7827 165.588 32.8075C165.633 32.8516 165.694 32.8767 165.757 32.8778C165.821 32.8789 165.883 32.8559 165.93 32.8135C165.948 32.794 165.964 32.7718 165.976 32.7478C165.925 32.7154 165.875 32.6562 165.825 32.6562L165.823 32.6573ZM167.829 31.0122C167.877 31.0254 167.921 31.0491 167.959 31.0817C167.997 31.1143 168.027 31.155 168.047 31.2006C168.098 31.3287 168.105 31.4702 168.066 31.6026C167.892 32 168.136 32.2351 168.36 32.4868C168.431 32.5686 168.574 32.5542 168.601 32.4642C168.65 32.3005 168.691 32.1369 168.731 31.9733C168.79 31.7278 168.882 31.5096 169.163 31.4567C169.344 31.4235 169.476 31.6116 169.533 31.9749C169.538 32.0082 169.53 32.0447 169.536 32.0783C169.583 32.3881 169.639 32.4538 169.905 32.4506C170.869 32.4361 171.828 32.4063 172.79 32.297C174.089 32.1489 175.399 32.099 176.704 32.0057C176.739 32.003 176.773 32.0003 176.807 32.0003C176.911 32.0079 177.014 31.9828 177.102 31.9286C177.191 31.8745 177.26 31.7939 177.3 31.6984C177.401 31.4802 177.518 31.2699 177.65 31.0694C177.731 30.9593 177.841 30.8732 177.967 30.8202C178.015 30.8067 178.065 30.8039 178.114 30.8119C178.163 30.8199 178.209 30.8386 178.25 30.8665C178.289 30.897 178.321 30.9362 178.342 30.981C178.363 31.0258 178.373 31.075 178.372 31.1245C178.301 31.3501 178.181 31.5587 178.096 31.7818C178.083 31.8167 178.164 31.9346 178.198 31.9324C178.675 31.9051 179.152 31.8691 179.628 31.8151C179.677 31.8059 179.724 31.7852 179.764 31.7547C179.804 31.7241 179.836 31.6845 179.857 31.6392C180.009 31.0408 180.196 30.4444 180.112 29.8119C180.104 29.7275 180.062 29.6498 179.997 29.5952C179.932 29.5407 179.849 29.5137 179.764 29.5201C179.695 29.5201 179.628 29.5302 179.558 29.5329C177.562 29.6128 175.566 29.6894 173.57 29.7743C173.262 29.7868 172.953 29.8288 172.647 29.8667C171.931 29.9589 171.217 30.0868 170.499 30.1438C169.744 30.2025 168.984 30.1965 168.226 30.2177C168.226 30.2104 168.226 30.2033 168.226 30.1967C167.916 30.1967 167.605 30.1894 167.295 30.1967C166.779 30.2112 166.261 30.2123 165.748 30.2616C165.351 30.2982 165.225 30.4632 165.209 30.8815C165.214 31.0838 165.233 31.2855 165.266 31.4851C165.525 31.4371 165.406 31.1663 165.532 31.0346C165.648 30.9132 165.741 30.7711 165.85 30.6429C165.863 30.632 165.879 30.6244 165.896 30.6209C165.913 30.6173 165.931 30.6179 165.948 30.6225C165.962 30.6299 165.975 30.6408 165.985 30.6541C165.995 30.6674 166.001 30.6828 166.004 30.6991C166.023 31.0037 166.035 31.3084 166.055 31.6133C166.056 31.6419 166.09 31.6746 166.117 31.6921C166.129 31.6989 166.175 31.6754 166.185 31.6558C166.263 31.5039 166.33 31.3457 166.413 31.1971C166.495 31.0484 166.594 30.8684 166.786 30.9074C166.843 30.9194 166.875 31.1488 166.883 31.2792C166.895 31.484 166.87 31.6905 166.88 31.8953C166.889 31.9256 166.906 31.9531 166.928 31.9752C166.951 31.9972 166.979 32.0131 167.01 32.0213C167.042 32.022 167.075 32.0148 167.104 32.0003C167.133 31.9857 167.158 31.9643 167.177 31.9378C167.311 31.6635 167.419 31.376 167.564 31.1063C167.593 31.0749 167.628 31.05 167.667 31.0334C167.707 31.0168 167.749 31.0088 167.791 31.01C167.804 31.0096 167.816 31.0101 167.829 31.0122ZM170.432 23.3845C170.402 23.4982 170.403 23.6174 170.433 23.7308C170.463 23.8442 170.522 23.948 170.603 24.0323C170.625 24.0538 170.675 24.0849 170.688 24.0753C170.733 24.0445 170.772 24.0047 170.802 23.9584C170.818 23.9341 170.808 23.8932 170.815 23.7748C170.791 23.6421 170.758 23.5111 170.718 23.3824C170.699 23.3551 170.675 23.3323 170.647 23.3156C170.618 23.2989 170.587 23.2887 170.554 23.2858H170.55C170.523 23.2913 170.499 23.3032 170.478 23.3204C170.458 23.3376 170.442 23.3596 170.431 23.3845H170.432ZM169.58 23.1118C169.532 23.3027 169.365 23.477 169.48 23.6927C169.512 23.7509 169.56 23.7987 169.618 23.8307C169.639 23.8414 169.725 23.7844 169.734 23.7489C169.748 23.6576 169.754 23.5653 169.753 23.4729C169.759 23.3607 169.757 23.2483 169.748 23.1363C169.743 23.1006 169.686 23.069 169.645 23.0445C169.616 23.059 169.593 23.0832 169.58 23.1129L169.58 23.1118ZM168.811 22.8443L168.877 22.8522L168.849 22.7783L168.811 22.8443ZM179.636 20.5765C179.581 20.6589 179.536 20.7472 179.501 20.8397C179.524 20.9399 179.559 21.037 179.606 21.1288C179.627 21.1518 179.655 21.1688 179.685 21.1781C179.715 21.1874 179.747 21.1886 179.778 21.1817C179.824 21.1452 179.862 21.0993 179.888 21.047C179.915 20.9948 179.931 20.9374 179.933 20.8787C179.936 20.82 179.926 20.7613 179.905 20.7067C179.883 20.6521 179.85 20.6028 179.808 20.5621C179.787 20.5495 179.763 20.5437 179.739 20.5454C179.702 20.5431 179.665 20.5545 179.636 20.5776L179.636 20.5765ZM178.547 20.8288C178.535 20.8591 178.53 20.8915 178.531 20.9239C178.532 20.9563 178.54 20.9882 178.554 21.0176C178.568 21.0469 178.587 21.0732 178.611 21.0949C178.636 21.1165 178.664 21.1331 178.695 21.1435C178.721 21.1435 178.747 21.1367 178.77 21.1239C178.793 21.111 178.813 21.0924 178.827 21.0699C178.843 20.9753 178.839 20.8784 178.815 20.7854C178.805 20.7473 178.722 20.7284 178.666 20.6984C178.626 20.7413 178.561 20.7792 178.546 20.8302L178.547 20.8288ZM177.534 20.9319C177.568 20.9687 177.599 21.0312 177.637 21.0342C177.686 21.0391 177.74 20.9976 177.792 20.9764C177.76 20.9387 177.73 20.8711 177.697 20.8703H177.691C177.635 20.8812 177.581 20.9025 177.533 20.933L177.534 20.9319ZM180.582 20.7994C180.596 20.8542 180.615 20.9078 180.639 20.9595C180.673 20.9267 180.706 20.8937 180.741 20.8613C180.709 20.8201 180.678 20.7794 180.646 20.7402C180.623 20.7612 180.579 20.7857 180.582 20.8005L180.582 20.7994ZM175.906 20.2024C175.93 20.1478 175.955 20.0933 175.98 20.0401C175.872 20.0502 175.785 20.0706 175.905 20.2029L175.906 20.2024ZM174.579 18.4378C174.569 18.5136 174.636 18.6001 174.667 18.6811C174.726 18.6471 174.784 18.61 174.839 18.5701C175.221 18.2728 175.275 18.1024 175.063 17.7135C174.976 17.586 174.872 17.4702 174.755 17.369C174.694 17.7265 174.627 18.0811 174.578 18.4389L174.579 18.4378ZM173.614 16.757C173.653 16.7869 173.685 16.825 173.709 16.8686C173.732 16.9122 173.745 16.9602 173.748 17.0095C173.758 17.246 173.73 17.4836 173.73 17.7206C173.738 17.8207 173.755 17.9199 173.781 18.017C173.839 17.9205 173.891 17.8203 173.937 17.717C174.082 17.3243 174.384 17.2741 174.735 17.3234C174.741 17.2655 174.733 17.207 174.712 17.1527C174.234 16.5559 173.642 16.0604 172.971 15.6953C172.947 15.6888 172.923 15.6888 172.9 15.6953C173.003 15.8977 173.032 16.1301 172.982 16.3517C172.924 16.6136 172.901 16.8819 172.913 17.1497C172.911 17.1803 172.939 17.2122 172.953 17.243C172.98 17.2274 173.013 17.2182 173.029 17.1961C173.109 17.087 173.179 16.9719 173.263 16.8666C173.29 16.8266 173.327 16.7933 173.369 16.769C173.411 16.7447 173.458 16.7301 173.506 16.7262C173.544 16.7275 173.581 16.7384 173.613 16.7581L173.614 16.757ZM172.332 15.4752C172.384 15.5496 172.426 15.6732 172.491 15.6879C172.617 15.7023 172.745 15.6985 172.871 15.6767C172.866 15.4809 172.705 15.4105 172.557 15.3593C172.552 15.3576 172.547 15.3568 172.541 15.3568C172.485 15.359 172.401 15.4394 172.332 15.4773V15.4752ZM175.153 38.4806C175.14 38.4495 175.133 38.4162 175.134 38.3826C175.134 38.3491 175.141 38.3159 175.154 38.285C175.352 37.8134 175.721 37.4337 176.186 37.2214C176.254 37.1905 176.374 37.2456 176.454 37.2887C176.484 37.3043 176.494 37.4145 176.471 37.4608C176.251 37.9176 175.934 38.3212 175.542 38.6439C175.499 38.6796 175.415 38.6646 175.317 38.678C175.254 38.6201 175.199 38.5543 175.153 38.4825V38.4806ZM174.446 37.7055C174.376 37.6318 174.332 37.5385 174.318 37.4383C174.304 37.3382 174.322 37.2362 174.369 37.1466C174.651 36.6358 175.047 36.1964 175.526 35.8621C175.609 35.8051 175.708 35.7749 175.809 35.7756C175.887 35.7827 175.958 35.8722 176.035 35.9275C176.008 36.0505 176.017 36.173 175.961 36.2434C175.586 36.7294 175.204 37.2113 174.809 37.6814C174.785 37.7104 174.756 37.7339 174.722 37.7502C174.688 37.7665 174.651 37.7752 174.614 37.7758C174.551 37.7758 174.491 37.7512 174.446 37.7073L174.446 37.7055Z" fill="black"/>
</g>
<defs>
<clipPath id="clip0_21_5">
<rect width="25" height="25" fill="white" transform="translate(0 17.1814) rotate(-43.4133)"/>
</clipPath>
<clipPath id="clip1_21_5">
<rect width="30" height="30" fill="white" transform="translate(158 14)"/>
</clipPath>
</defs>
</svg>
